<svg xmlns="http://www.w3.org/2000/svg" width="55.392" height="39.152" viewBox="0 0 55.392 39.152">
  <g id="Group_22" data-name="Group 22" transform="translate(-690.608 -3632.848)">
    <rect id="Rectangle_26" data-name="Rectangle 26" width="35" height="22" transform="translate(692 3634)" fill="#37a623"/>
    <g id="truck_3_" data-name="truck (3)" transform="translate(690.608 3557.792)">
      <path id="Path_63" data-name="Path 63" d="M55.322,93.288a3.462,3.462,0,0,0-.727-1.531L47.74,83.476a3.44,3.44,0,0,0-2.659-1.251H43.405a.811.811,0,1,0,0,1.623h1.676a1.823,1.823,0,0,1,1.408.662l.647.781H43.212a2.145,2.145,0,0,0-2.093,2.189v4.588a2.145,2.145,0,0,0,2.093,2.189H53.765v12.035a1.139,1.139,0,0,1-1.138,1.138h-.586a5.863,5.863,0,0,0-11.581,0H38.028V84.289a.442.442,0,0,1,.441-.441h1.69a.811.811,0,1,0,0-1.623H38.47a2.044,2.044,0,0,0-.441.048V76.95a1.9,1.9,0,0,0-1.893-1.893H9.686a.811.811,0,1,0,0,1.623H36.135a.271.271,0,0,1,.27.27V97.4H1.623V76.95a.271.271,0,0,1,.27-.27H6.441a.811.811,0,0,0,0-1.623H1.893A1.9,1.9,0,0,0,0,76.95v28.068a4.037,4.037,0,0,0,4.033,4.033H8.111a5.863,5.863,0,0,0,11.64,0h6.326a.811.811,0,0,0,0-1.623H19.72c-1.029-6.53-10.549-6.582-11.581,0H4.033a2.413,2.413,0,0,1-2.41-2.41v-.069H3.639a2.232,2.232,0,1,0,0-4.464H1.623V99.033H36.406v8.4H29.323a.811.811,0,1,0,0,1.623H40.432a5.863,5.863,0,0,0,11.64,0h.555a2.764,2.764,0,0,0,2.761-2.761c0-13.442.027-12.532-.066-13Zm-12.11-.655a.525.525,0,0,1-.471-.566V87.479a.525.525,0,0,1,.471-.566h5.266l4.735,5.719h-10Zm-25.144,14.8a4.1,4.1,0,0,1,.1.918,4.241,4.241,0,0,1-8.481,0c-.018-5.151,7.4-5.725,8.377-.916Zm-14.429-5.32a.61.61,0,0,1,.431,1.04c-.233.233-.268.179-2.447.179v-1.218Zm46.854,6.239a4.24,4.24,0,1,1-7.983-1.995,4.241,4.241,0,0,1,7.983,1.995Z"/>
      <path id="Path_64" data-name="Path 64" d="M101.932,359.26a3.253,3.253,0,1,0-3.12-4.171A3.258,3.258,0,0,0,101.932,359.26Zm-1.347-4.171a1.63,1.63,0,1,1,1.347,2.549A1.63,1.63,0,0,1,100.585,355.089Z" transform="translate(-88.002 -247.66)"/>
      <path id="Path_65" data-name="Path 65" d="M397.568,355.136a3.253,3.253,0,1,0,6.374.918A3.258,3.258,0,0,0,397.568,355.136Zm4.59,1.623a1.63,1.63,0,1,1-1.469-2.336A1.63,1.63,0,0,1,402.158,356.759Z" transform="translate(-354.436 -247.707)"/>
      <path id="Path_66" data-name="Path 66" d="M384.418,266.655a.811.811,0,0,0,0-1.623h-2.689a.811.811,0,0,0,0,1.623Z" transform="translate(-339.707 -169.422)"/>
    </g>
  </g>
</svg>
