<svg id="Shopio_logo_green" data-name="Shopio logo green" xmlns="http://www.w3.org/2000/svg" width="193.284" height="43.807" viewBox="0 0 193.284 43.807">
  <path id="Path_1" data-name="Path 1" d="M76.808,82.6a2.782,2.782,0,0,1-2.782,2.782h-24.1a2.782,2.782,0,1,1,0-5.563h24.1A2.782,2.782,0,0,1,76.808,82.6Z" transform="translate(-31.601 -53.505)" fill="#37a623"/>
  <path id="Path_2" data-name="Path 2" d="M78.172,56.886a2.781,2.781,0,0,1-2.781,2.781H45.636a2.781,2.781,0,1,1,0-5.562H75.391A2.781,2.781,0,0,1,78.172,56.886Z" transform="translate(-28.728 -36.269)" fill="#37a623"/>
  <path id="Path_3" data-name="Path 3" d="M78.911,31.395a2.78,2.78,0,0,1-2.8,2.737H40.569a2.738,2.738,0,1,1,0-5.475H76.108A2.78,2.78,0,0,1,78.911,31.395Z" transform="translate(-25.317 -19.21)" fill="#37a623"/>
  <path id="Path_4" data-name="Path 4" d="M106.68,112.538a3.012,3.012,0,1,1,3.013-3.01A3.009,3.009,0,0,1,106.68,112.538Zm0-7.6a4.591,4.591,0,1,0,4.591,4.591A4.59,4.59,0,0,0,106.68,104.937Z" transform="translate(-68.436 -70.345)" fill="#717272"/>
  <path id="Path_5" data-name="Path 5" d="M57.886,112.538a3.012,3.012,0,1,1,3.012-3.01A3.01,3.01,0,0,1,57.886,112.538Zm0-7.6a4.591,4.591,0,1,0,4.591,4.591A4.591,4.591,0,0,0,57.886,104.937Z" transform="translate(-35.726 -70.345)" fill="#717272"/>
  <path id="Path_6" data-name="Path 6" d="M.942,1.883A.942.942,0,1,1,.942,0H9.536a.942.942,0,1,1,0,1.883Z" fill="#717272"/>
  <path id="Path_7" data-name="Path 7" d="M30.764,8.289A.942.942,0,0,1,29.5,7.871L26.267,1.458A.941.941,0,1,1,27.948.61l3.233,6.413A.942.942,0,0,1,30.764,8.289Z" transform="translate(-17.54 -0.062)" fill="#717272"/>
  <path id="Path_8" data-name="Path 8" d="M190.192,37.562a22.557,22.557,0,0,0,6.907,1.312c2.186,0,3.76-.437,3.891-1.749.175-1.749-1.661-2.186-3.891-2.8-3.585-.874-6.645-2.885-6.208-6.995.481-4.722,3.935-6.383,9.4-6.383a26.638,26.638,0,0,1,7.3,1.312l-1.443,4.809a19.332,19.332,0,0,0-5.989-1.312c-2.142,0-3.06.656-3.147,1.53-.131,1.312,1.224,1.7,3.672,2.361,3.585.962,6.951,2.4,6.47,7.039-.525,4.9-4.9,7-10.58,7a23.334,23.334,0,0,1-7.694-1.312Zm27.219,5.683H211.29l3.192-30.6,6.164-.437L219.2,24.883h.219a8.382,8.382,0,0,1,7.169-3.935c3.935,0,6.252,2.623,5.64,9.181l-1.268,13.115h-6.12L226.154,31c.437-4.153-.656-5.246-2.186-5.246-2.4,0-4.984,3.454-5.508,8.088Zm28.809-4.153c3.06,0,5.027-1.967,5.6-7.213.481-4.59-.656-6.339-3.716-6.339s-5.027,1.967-5.552,7.213C242.066,37.343,243.159,39.092,246.219,39.092ZM248.8,20.949c6.121,0,9.924,3.279,9.137,10.929-.831,7.651-4.984,11.8-12.416,11.8-6.121,0-9.924-3.279-9.093-10.93C237.213,25.1,241.367,20.949,248.8,20.949Zm19.173,17.269a8.734,8.734,0,0,0,3.279.656c2.842,0,5.159-1.967,5.683-6.776.437-4.153-.437-6.339-2.623-6.339-3.017,0-5.333,3.5-5.858,8.088Zm-7.563,13.771,3.191-30.6h6.077l-.437,3.5h.219a8.872,8.872,0,0,1,7.476-3.935c4.372,0,6.733,4.372,6.12,10.929-.656,6.558-4.5,11.8-11.716,11.8a24.363,24.363,0,0,1-3.935-.35l-.874,8.656Zm34.458-30.6h-6.12l-2.274,21.859h6.121ZM288.877,15.7a3.127,3.127,0,0,0,3.148,3.5,3.954,3.954,0,0,0,3.847-3.5,3.072,3.072,0,0,0-3.1-3.5A4.032,4.032,0,0,0,288.877,15.7Zm19.2,23.389c3.06,0,5.027-1.967,5.6-7.213.481-4.59-.656-6.339-3.716-6.339s-5.028,1.967-5.552,7.213C303.928,37.343,305.021,39.092,308.082,39.092Zm2.579-18.143c6.121,0,9.924,3.279,9.137,10.929-.831,7.651-4.984,11.8-12.416,11.8-6.121,0-9.924-3.279-9.093-10.93C299.076,25.1,303.229,20.949,310.661,20.949Z" transform="translate(-126.616 -8.182)"/>
</svg>
