<svg xmlns="http://www.w3.org/2000/svg" width="48" height="48.01" viewBox="0 0 48 48.01">
  <g id="Group_25" data-name="Group 25" transform="translate(-761 -3691)">
    <path id="Subtraction_1" data-name="Subtraction 1" d="M12.208,34.519h0C12.094,34.36.885,18.738.421,16.7a19.535,19.535,0,0,1-.33-5.906C.413,7.676,1.539,5.38,3.439,3.965,6.822,1.445,10.3,0,12.995,0a5.323,5.323,0,0,1,2.326.476l.305.147a25.018,25.018,0,0,1,5.084,3.012A8.486,8.486,0,0,1,24.09,9.246a25.247,25.247,0,0,1,.094,6.377A8.617,8.617,0,0,1,22.3,20.091C20.254,22.507,12.29,34.4,12.209,34.517Zm.217-29.9a8,8,0,1,0,8,8A8.008,8.008,0,0,0,12.425,4.619Z" transform="translate(780.574 3691.382)" fill="#37a623"/>
    <g id="map-location" transform="translate(761 3691.062)">
      <path id="Path_70" data-name="Path 70" d="M47.514,18.378l-3.4-1.278a13.035,13.035,0,1,0-24.718.032L16.253,18.28,1.014,12.566a.751.751,0,0,0-1.014.7v28.12a.751.751,0,0,0,.486.7l15.5,5.811a.739.739,0,0,0,.528,0L31.75,42.189,46.986,47.9a.733.733,0,0,0,.264.048A.751.751,0,0,0,48,47.2V19.08a.75.75,0,0,0-.486-.7ZM31.745,1.46a11.528,11.528,0,0,1,9.488,18.086.707.707,0,0,0-.049.084L31.75,33.515,22.287,19.586A11.526,11.526,0,0,1,31.745,1.46ZM1.5,14.351l14,5.249V46.118l-14-5.249Zm45,31.767-14-5.249v-2.8a.75.75,0,1,0-1.5,0v2.8L17,46.118V19.6l2.951-1.078a13.07,13.07,0,0,0,1.1,1.912L31.13,35.271a.749.749,0,0,0,1.24,0L42.478,20.4a.588.588,0,0,0,.044-.077A13.094,13.094,0,0,0,43.556,18.5L46.5,19.6Z"/>
      <path id="Path_71" data-name="Path 71" d="M31.745,21.4A8.4,8.4,0,1,0,23.34,13a8.4,8.4,0,0,0,8.405,8.4Zm0-15.31A6.9,6.9,0,1,1,24.84,13a6.9,6.9,0,0,1,6.905-6.91Z"/>
    </g>
  </g>
</svg>
