<svg xmlns="http://www.w3.org/2000/svg" width="55.157" height="48" viewBox="0 0 55.157 48">
  <g id="Group_24" data-name="Group 24" transform="translate(-899.843 -3624)">
    <path id="Path_68" data-name="Path 68" d="M921.1,3671.11l9.938-19.658,1.959,1.306,2.031-2.321,3.192,2.321,4.352-3.409,7.834,17.192-3.409-1.015a2.345,2.345,0,0,0-2.9-1.6,4.061,4.061,0,0,0-2.829,2.611l-2.249,1.233h-2.031s-.073-2.1-1.959-1.813a2.546,2.546,0,0,0-2.031,2.321s-1.741.363-1.959,1.016.508,1.813.508,1.813Z" fill="#37a623"/>
    <path id="Path_69" data-name="Path 69" d="M907.821,3663.42l2.1,1.668,2.684-1.668,3.772,8.052H901.438l3.845-7.254Z" fill="#37a623"/>
    <g id="mountain" transform="translate(899.843 3624)">
      <path id="Path_50" data-name="Path 50" d="M131.137,36.37a.808.808,0,0,0,.808-.808V34.025a.808.808,0,1,0-1.616,0v1.537A.808.808,0,0,0,131.137,36.37Z" transform="translate(-116.289 -33.217)"/>
      <path id="Path_51" data-name="Path 51" d="M130.329,165.219v1.537a.808.808,0,1,0,1.616,0v-1.537a.808.808,0,0,0-1.616,0Z" transform="translate(-116.289 -150.278)"/>
      <path id="Path_52" data-name="Path 52" d="M80.223,56.985a.808.808,0,1,0,1.143-1.143l-1.087-1.087A.808.808,0,1,0,79.136,55.9Z" transform="translate(-70.4 -52.224)"/>
      <path id="Path_53" data-name="Path 53" d="M173.049,147.524a.808.808,0,0,0-1.143,1.143l1.087,1.087a.808.808,0,1,0,1.143-1.143Z" transform="translate(-153.176 -134.999)"/>
      <path id="Path_54" data-name="Path 54" d="M58.407,107.564h1.537a.808.808,0,0,0,0-1.616H58.407a.808.808,0,0,0,0,1.616Z" transform="translate(-51.394 -98.113)"/>
      <path id="Path_55" data-name="Path 55" d="M188.792,106.756a.808.808,0,0,0,.808.808h1.537a.808.808,0,1,0,0-1.616H189.6A.808.808,0,0,0,188.792,106.756Z" transform="translate(-168.454 -98.113)"/>
      <path id="Path_56" data-name="Path 56" d="M80.215,147.524l-1.087,1.087a.808.808,0,0,0,1.143,1.143l1.087-1.087a.808.808,0,0,0-1.143-1.143Z" transform="translate(-70.392 -134.999)"/>
      <path id="Path_57" data-name="Path 57" d="M173.048,56.985l1.087-1.087a.808.808,0,1,0-1.143-1.143l-1.087,1.087a.808.808,0,1,0,1.143,1.143Z" transform="translate(-153.175 -52.224)"/>
      <path id="Path_58" data-name="Path 58" d="M55.155,186.341a2.6,2.6,0,0,0-2.991-2.438c-.622-1.19,2.1,4.236-9.073-18.1h0l-3.829-7.657a2.061,2.061,0,0,0-3.685,0l-3.047,6.094-4.581-9.163h0a1.873,1.873,0,0,0-3.35,0l-3.756,7.512a.432.432,0,0,1-.774,0,1.873,1.873,0,0,0-3.35,0l-6.075,12.151-.165-.329a1.375,1.375,0,0,0-2.459,0h0l-6.5,13H.808a.808.808,0,1,0,0,1.616H41.5a.808.808,0,1,0,0-1.616h-8.95a.646.646,0,0,1-.646-.656.658.658,0,0,1,.717-.633,1.16,1.16,0,0,0,1.284-.942,1.532,1.532,0,0,1,2.838-.467,1.225,1.225,0,0,0,1.318.593,1.207,1.207,0,0,1,.76-.025c.945.3,1.125-.545,2.036-.364a1.117,1.117,0,0,0,1.33-.94,2.516,2.516,0,0,1,4.69-.9,1.379,1.379,0,0,0,1.257.7,1.328,1.328,0,0,0,.347-.062A1.9,1.9,0,0,1,50.8,184.8a1.248,1.248,0,0,0,1.51.72.961.961,0,1,1,.267,1.883H45.272a.808.808,0,1,0,0,1.616H52.58A2.575,2.575,0,0,0,55.155,186.341ZM37.023,158.865a.444.444,0,0,1,.794,0l3.571,7.142-2.848,2.91a.188.188,0,0,1-.256.011l-1.726-1.485a1.8,1.8,0,0,0-2.577.231l-.925,1.141a.187.187,0,0,1-.272.019l-.51-.472ZM9.25,175.561l2.205,4.411-1.173,1.2-1.293-1.113a1.573,1.573,0,0,0-1.946-.083ZM3.327,187.407l2.36-4.721c1.158.29,1.677-.627,2.283-1.374l1.29,1.11a1.575,1.575,0,0,0,2.148-.092l.812-.829,2.953,5.906Zm17.618,0H16.98l-5.432-10.865,6.617-13.234a.256.256,0,0,1,.459,0,2.049,2.049,0,0,0,3.664,0l3.756-7.512a.256.256,0,0,1,.459,0h0l5.124,10.247Zm28.02-5.394a3.488,3.488,0,0,0-.777.108,4.132,4.132,0,0,0-7.508,1.154,2.853,2.853,0,0,0-1.544.413,2.707,2.707,0,0,0-1.149-.032,3.148,3.148,0,0,0-5.574.846,2.269,2.269,0,0,0-2.124,2.226h0a2.426,2.426,0,0,0,.093.679h-7.63l8.769-17.539.166.153h0a1.8,1.8,0,0,0,2.625-.188l.925-1.141a.187.187,0,0,1,.267-.024l1.726,1.485a1.807,1.807,0,0,0,2.465-.106l2.457-2.511L49.4,182.028A3.535,3.535,0,0,0,48.965,182.013Z" transform="translate(0 -141.023)"/>
      <path id="Path_59" data-name="Path 59" d="M97.789,78.241a4.828,4.828,0,0,0,4.271-2.57.808.808,0,0,0-1.427-.758,3.218,3.218,0,1,1,0-3.013.808.808,0,0,0,1.427-.758,4.834,4.834,0,1,0-4.271,7.1Z" transform="translate(-82.941 -64.763)"/>
    </g>
  </g>
</svg>
