<svg xmlns="http://www.w3.org/2000/svg" width="55.157" height="43.314" viewBox="0 0 55.157 43.314">
  <g id="Group_23" data-name="Group 23" transform="translate(-843.501 -3624)">
    <path id="Path_67" data-name="Path 67" d="M856.918,3660s9.881,3.793,18.009,0a36.268,36.268,0,0,0,12.59-9.69l-4.144-2.231,11.156-7.809,3.347,14.343-4.462-1.753s-3.665,7.331-5.9,8.765-11.315,7.171-19.762,4.622S856.918,3660,856.918,3660Z" fill="#37a623"/>
    <g id="exchange_4_" data-name="exchange (4)" transform="translate(843.501 3624)">
      <g id="Group_21" data-name="Group 21" transform="translate(0 0)">
        <g id="Group_20" data-name="Group 20">
          <path id="Path_48" data-name="Path 48" d="M16.259,73.722A1.378,1.378,0,0,0,15.4,72.6l-2.83-1.137a22.612,22.612,0,0,1,29.42-7.158,1.379,1.379,0,0,0,1.642-2.179l-.029-.029A24.364,24.364,0,0,0,4.668,68.29L1.893,67.175A1.379,1.379,0,0,0,.031,68.75l1.512,6.909a.883.883,0,0,0,1.725-.377l-1.356-6.2,2.861,1.149a.883.883,0,0,0,1.13-.447,22.6,22.6,0,0,1,34.52-8.169,24.606,24.606,0,0,0-12.529-1.562,24.137,24.137,0,0,0-13.869,6.9A24.462,24.462,0,0,0,10.5,71.422a.883.883,0,0,0,.423,1.282l3.165,1.271L4.464,80.748l-.381-1.742a.883.883,0,0,0-1.725.377l.505,2.31A1.379,1.379,0,0,0,5,82.527l10.678-7.517A1.378,1.378,0,0,0,16.259,73.722Z" transform="translate(0.001 -54.966)"/>
          <path id="Path_49" data-name="Path 49" d="M147.23,212.892,144.4,199.948a1.379,1.379,0,0,0-2.141-.833l-10.678,7.517a1.379,1.379,0,0,0,.28,2.408l2.83,1.137a22.613,22.613,0,0,1-29.42,7.158,1.379,1.379,0,0,0-1.636,2.185l.023.023a24.2,24.2,0,0,0,17.155,7.133h.068A24.2,24.2,0,0,0,138,219.643a.883.883,0,1,0-1.241-1.256,22.651,22.651,0,0,1-29.9,1.64,24.6,24.6,0,0,0,12.517,1.557,24.137,24.137,0,0,0,13.869-6.9,24.45,24.45,0,0,0,3.528-4.462.883.883,0,0,0-.423-1.282l-3.165-1.271,9.621-6.773,2.551,11.662-2.861-1.149a.883.883,0,0,0-1.13.447,22.539,22.539,0,0,1-2.262,3.823.883.883,0,1,0,1.423,1.045,24.311,24.311,0,0,0,2.073-3.369l2.776,1.115a1.379,1.379,0,0,0,1.861-1.575Z" transform="translate(-92.105 -183.361)"/>
        </g>
      </g>
    </g>
  </g>
</svg>
