<svg xmlns="http://www.w3.org/2000/svg" width="28.62" height="27.41" viewBox="0 0 28.62 27.41">
  <g id="Icon_feather-shopping-cart" data-name="Icon feather-shopping-cart" transform="translate(-0.5 -0.5)">
    <path id="Path_18" data-name="Path 18" d="M14.42,31.21A1.21,1.21,0,1,1,13.21,30,1.21,1.21,0,0,1,14.42,31.21Z" transform="translate(-2.03 -5.51)" fill="none" stroke="#000" stroke-linecap="round" stroke-linejoin="round" stroke-width="2"/>
    <path id="Path_19" data-name="Path 19" d="M30.92,31.21A1.21,1.21,0,1,1,29.71,30,1.21,1.21,0,0,1,30.92,31.21Z" transform="translate(-5.22 -5.51)" fill="none" stroke="#000" stroke-linecap="round" stroke-linejoin="round" stroke-width="2"/>
    <path id="Path_20" data-name="Path 20" d="M1.5,1.5H6.34L9.583,17.7A2.42,2.42,0,0,0,12,19.65H23.764a2.42,2.42,0,0,0,2.42-1.948L28.12,7.55H7.55" fill="none" stroke="#000" stroke-linecap="round" stroke-linejoin="round" stroke-width="2"/>
  </g>
</svg>
